<svg xmlns="http://www.w3.org/2000/svg" xmlns:xlink="http://www.w3.org/1999/xlink" width="100" zoomAndPan="magnify" viewBox="0 0 75 30.000001" height="40" preserveAspectRatio="xMidYMid meet" version="1.0"><defs><g/><clipPath id="2153d4950e"><path d="M 66.910156 6.082031 L 72 6.082031 L 72 11.164062 L 66.910156 11.164062 Z M 66.910156 6.082031 " clip-rule="nonzero"/></clipPath><clipPath id="1bb0d16a05"><path d="M 70 8 L 73.441406 8 L 73.441406 11.164062 L 70 11.164062 Z M 70 8 " clip-rule="nonzero"/></clipPath><clipPath id="ac2a5bb710"><path d="M 70 6.082031 L 73 6.082031 L 73 8 L 70 8 Z M 70 6.082031 " clip-rule="nonzero"/></clipPath></defs><g clip-path="url(#2153d4950e)"><path fill="#000" d="M 69.453125 7.4375 C 69.484375 7.726562 69.601562 7.976562 69.804688 8.1875 C 70.011719 8.394531 70.257812 8.511719 70.542969 8.546875 C 70.984375 8.589844 71.425781 8.609375 71.871094 8.605469 C 71.425781 8.601562 70.984375 8.625 70.542969 8.667969 C 70.257812 8.699219 70.011719 8.820312 69.804688 9.027344 C 69.601562 9.234375 69.484375 9.484375 69.453125 9.777344 C 69.40625 10.226562 69.386719 10.675781 69.390625 11.125 C 69.394531 10.675781 69.375 10.226562 69.332031 9.777344 C 69.300781 9.484375 69.179688 9.234375 68.976562 9.027344 C 68.773438 8.820312 68.527344 8.699219 68.238281 8.667969 C 67.796875 8.625 67.355469 8.601562 66.910156 8.605469 C 67.355469 8.609375 67.796875 8.589844 68.238281 8.546875 C 68.527344 8.511719 68.773438 8.394531 68.976562 8.1875 C 69.179688 7.976562 69.300781 7.726562 69.332031 7.4375 C 69.375 6.988281 69.394531 6.539062 69.390625 6.085938 C 69.386719 6.539062 69.40625 6.988281 69.453125 7.4375 Z M 69.453125 7.4375 " fill-opacity="1" fill-rule="nonzero"/></g><g clip-path="url(#1bb0d16a05)"><path fill="#000" d="M 72.21875 9.289062 C 72.234375 9.4375 72.296875 9.5625 72.398438 9.667969 C 72.503906 9.773438 72.628906 9.835938 72.773438 9.851562 C 72.996094 9.875 73.21875 9.882812 73.445312 9.882812 C 73.21875 9.878906 72.996094 9.890625 72.773438 9.914062 C 72.628906 9.929688 72.503906 9.988281 72.398438 10.09375 C 72.296875 10.199219 72.234375 10.328125 72.21875 10.472656 C 72.199219 10.699219 72.1875 10.929688 72.191406 11.15625 C 72.191406 10.929688 72.179688 10.699219 72.160156 10.472656 C 72.144531 10.328125 72.082031 10.199219 71.980469 10.09375 C 71.875 9.988281 71.75 9.929688 71.605469 9.914062 C 71.382812 9.890625 71.160156 9.878906 70.933594 9.882812 C 71.160156 9.882812 71.382812 9.875 71.605469 9.851562 C 71.75 9.835938 71.875 9.773438 71.980469 9.667969 C 72.082031 9.5625 72.144531 9.4375 72.160156 9.289062 C 72.179688 9.0625 72.191406 8.835938 72.191406 8.605469 C 72.1875 8.835938 72.199219 9.0625 72.21875 9.289062 Z M 72.21875 9.289062 " fill-opacity="1" fill-rule="nonzero"/></g><g clip-path="url(#ac2a5bb710)"><path fill="#000" d="M 71.277344 6.773438 C 71.300781 6.980469 71.410156 7.09375 71.613281 7.117188 C 71.75 7.128906 71.886719 7.136719 72.023438 7.136719 C 71.886719 7.132812 71.75 7.140625 71.613281 7.152344 C 71.410156 7.175781 71.300781 7.289062 71.277344 7.496094 C 71.261719 7.636719 71.257812 7.773438 71.257812 7.914062 C 71.257812 7.773438 71.253906 7.636719 71.238281 7.496094 C 71.21875 7.289062 71.105469 7.175781 70.902344 7.152344 C 70.765625 7.140625 70.628906 7.132812 70.492188 7.136719 C 70.628906 7.136719 70.765625 7.128906 70.902344 7.117188 C 71.105469 7.09375 71.21875 6.980469 71.238281 6.773438 C 71.253906 6.636719 71.257812 6.496094 71.257812 6.355469 C 71.257812 6.496094 71.261719 6.636719 71.277344 6.773438 Z M 71.277344 6.773438 " fill-opacity="1" fill-rule="nonzero"/></g><g fill="#000" fill-opacity="1"><g transform="translate(1.893074, 19.348529)"><g><path d="M 1.183594 0 L 3.410156 0 L 3.410156 -5.949219 L 5.808594 -2.4375 L 7.359375 -2.4375 L 9.753906 -5.933594 L 9.753906 0 L 11.980469 0 L 11.980469 -9.867188 L 10.09375 -9.867188 L 6.597656 -4.75 L 3.085938 -9.867188 L 1.183594 -9.867188 Z M 1.183594 0 "/></g></g></g><g fill="#000" fill-opacity="1"><g transform="translate(14.493463, 19.348529)"><g><path d="M 3.539062 0.140625 C 4.636719 0.140625 5.539062 -0.210938 6.175781 -0.859375 L 6.414062 0 L 8.007812 0 L 8.007812 -4.453125 C 8.007812 -6.414062 6.679688 -7.597656 4.46875 -7.597656 C 2.578125 -7.597656 1.339844 -6.695312 1.070312 -5.089844 L 3.128906 -5.089844 C 3.257812 -5.609375 3.792969 -5.960938 4.484375 -5.960938 C 5.328125 -5.960938 5.90625 -5.484375 5.90625 -4.75 L 5.90625 -4.414062 L 3.226562 -4.414062 C 1.691406 -4.414062 0.703125 -3.523438 0.703125 -2.15625 C 0.703125 -0.734375 1.789062 0.140625 3.539062 0.140625 Z M 2.820312 -2.242188 C 2.820312 -2.75 3.242188 -3.074219 3.890625 -3.074219 L 5.921875 -3.074219 C 5.878906 -2.070312 5.101562 -1.394531 4.03125 -1.394531 C 3.296875 -1.394531 2.820312 -1.734375 2.820312 -2.242188 Z M 2.820312 -2.242188 "/></g></g></g><g fill="#000" fill-opacity="1"><g transform="translate(22.865508, 19.348529)"><g><path d="M 4.679688 3.128906 C 7.046875 3.128906 8.554688 1.804688 8.554688 -0.410156 L 8.554688 -7.402344 L 6.964844 -7.402344 L 6.738281 -6.582031 C 6.089844 -7.230469 5.1875 -7.597656 4.128906 -7.597656 C 2.042969 -7.597656 0.550781 -6.0625 0.550781 -3.90625 C 0.550781 -1.734375 2.042969 -0.199219 4.128906 -0.199219 C 5.019531 -0.199219 5.808594 -0.464844 6.414062 -0.929688 L 6.414062 -0.410156 C 6.414062 0.789062 5.808594 1.394531 4.636719 1.394531 C 3.75 1.394531 3.15625 1.027344 3.003906 0.378906 L 0.917969 0.378906 C 1.097656 2.085938 2.539062 3.128906 4.679688 3.128906 Z M 2.664062 -3.90625 C 2.664062 -5.03125 3.453125 -5.820312 4.582031 -5.820312 C 5.710938 -5.820312 6.511719 -5.03125 6.511719 -3.90625 C 6.511719 -2.761719 5.710938 -1.972656 4.582031 -1.972656 C 3.453125 -1.972656 2.664062 -2.761719 2.664062 -3.90625 Z M 2.664062 -3.90625 "/></g></g></g><g fill="#000" fill-opacity="1"><g transform="translate(31.942277, 19.348529)"><g><path d="M 1.070312 0 L 3.214844 0 L 3.214844 -7.402344 L 1.070312 -7.402344 Z M 0.761719 -9.796875 C 0.761719 -9.007812 1.324219 -8.457031 2.144531 -8.457031 C 2.960938 -8.457031 3.523438 -9.007812 3.523438 -9.796875 C 3.523438 -10.585938 2.960938 -11.136719 2.144531 -11.136719 C 1.324219 -11.136719 0.761719 -10.585938 0.761719 -9.796875 Z M 0.761719 -9.796875 "/></g></g></g><g fill="#000" fill-opacity="1"><g transform="translate(35.663147, 19.348529)"><g><path d="M 4.59375 0.199219 C 6.679688 0.199219 8.246094 -1.027344 8.640625 -2.972656 L 6.554688 -2.972656 C 6.257812 -2.171875 5.527344 -1.648438 4.625 -1.648438 C 3.46875 -1.648438 2.664062 -2.496094 2.664062 -3.707031 C 2.664062 -4.917969 3.46875 -5.765625 4.625 -5.765625 C 5.46875 -5.765625 6.160156 -5.3125 6.511719 -4.566406 L 8.570312 -4.566406 C 8.230469 -6.398438 6.652344 -7.597656 4.59375 -7.597656 C 2.226562 -7.597656 0.550781 -5.976562 0.550781 -3.707031 C 0.550781 -1.421875 2.214844 0.199219 4.59375 0.199219 Z M 4.59375 0.199219 "/></g></g></g><g fill="#3e97ff" fill-opacity="1"><g transform="translate(44.824842, 19.348529)"><g><path d="M 5.554688 0.199219 C 7.765625 0.199219 9.332031 -1.410156 9.332031 -3.707031 C 9.332031 -5.976562 7.765625 -7.597656 5.554688 -7.597656 C 4.636719 -7.597656 3.835938 -7.316406 3.214844 -6.824219 L 3.214844 -10.429688 L 1.070312 -10.429688 L 1.070312 0 L 2.664062 0 L 2.902344 -0.847656 C 3.566406 -0.183594 4.484375 0.199219 5.554688 0.199219 Z M 3.128906 -3.707031 C 3.128906 -4.90625 3.976562 -5.765625 5.171875 -5.765625 C 6.386719 -5.765625 7.21875 -4.90625 7.21875 -3.707031 C 7.21875 -2.496094 6.386719 -1.648438 5.171875 -1.648438 C 3.976562 -1.648438 3.128906 -2.496094 3.128906 -3.707031 Z M 3.128906 -3.707031 "/></g></g></g><g fill="#3e97ff" fill-opacity="1"><g transform="translate(54.141217, 19.348529)"><g><path d="M 4.707031 0.199219 C 7.160156 0.199219 8.851562 -1.394531 8.851562 -3.707031 C 8.851562 -6.003906 7.160156 -7.597656 4.707031 -7.597656 C 2.242188 -7.597656 0.550781 -6.003906 0.550781 -3.707031 C 0.550781 -1.394531 2.242188 0.199219 4.707031 0.199219 Z M 2.664062 -3.707031 C 2.664062 -4.917969 3.511719 -5.765625 4.707031 -5.765625 C 5.90625 -5.765625 6.738281 -4.917969 6.738281 -3.707031 C 6.738281 -2.496094 5.90625 -1.648438 4.707031 -1.648438 C 3.511719 -1.648438 2.664062 -2.496094 2.664062 -3.707031 Z M 2.664062 -3.707031 "/></g></g></g><g fill="#3e97ff" fill-opacity="1"><g transform="translate(62.97838, 19.348529)"><g><path d="M 4.636719 0 L 5.992188 0 L 5.992188 -1.859375 L 5.101562 -1.859375 C 4.257812 -1.859375 3.863281 -2.269531 3.863281 -3.128906 L 3.863281 -5.652344 L 5.890625 -5.652344 L 5.890625 -7.402344 L 3.863281 -7.402344 L 3.863281 -9.316406 L 2.199219 -9.316406 L 2.070312 -8.359375 C 1.960938 -7.597656 1.746094 -7.402344 0.945312 -7.402344 L 0.28125 -7.402344 L 0.28125 -5.652344 L 1.71875 -5.652344 L 1.71875 -2.804688 C 1.71875 -1 2.761719 0 4.636719 0 Z M 4.636719 0 "/></g></g></g></svg>