<svg xmlns="http://www.w3.org/2000/svg" width="130" height="32" viewBox="0 0 130 32" fill="none">
<path fill-rule="evenodd" clip-rule="evenodd" d="M124.143 24.1906V0.227987C124.975 0.0763298 125.883 0.00012207 126.792 0.00012207C127.7 0.00012207 128.646 0.0759507 129.592 0.227987V24.1898C128.759 24.3411 127.813 24.4177 126.905 24.4177C125.997 24.3801 125.089 24.3036 124.143 24.1906ZM29.0798 13.2326V24.1519C28.1716 24.3036 27.2633 24.3802 26.3551 24.3802C25.4468 24.3802 24.5386 24.3036 23.6303 24.1519V14.4459C23.6303 12.2848 22.6086 11.1473 20.565 11.1473C19.1648 11.1473 18.2944 11.6778 17.6511 12.1331L17.6606 12.2278V12.2278C17.695 12.5698 17.7268 12.8853 17.7268 13.2326V24.1519C16.8185 24.3036 15.9103 24.3802 15.0021 24.3802C14.0938 24.3802 13.1856 24.3036 12.3152 24.1519V14.4459C12.3152 12.2848 11.2556 11.1473 9.21202 11.1473C8.00103 11.1473 7.05494 11.4882 6.4116 11.8673V24.1519C5.50336 24.3036 4.59512 24.3802 3.68688 24.3802C2.77864 24.3802 1.90824 24.3036 1 24.1519V9.09997C2.1353 8.03837 5.38983 6.21848 9.66614 6.21848C12.126 6.21848 14.0181 6.82511 15.3048 7.84879C16.705 6.97677 18.7107 6.21848 21.057 6.21848C26.4686 6.21848 29.0798 9.17579 29.0798 13.2326ZM48.342 23.0527V13.9529C48.342 8.53119 44.8604 6.33216 39.8651 6.33216C36.0429 6.33216 33.3182 8.00039 32.3342 8.87242C32.5991 10.5027 33.5074 11.716 34.6805 12.3605C35.5888 11.6402 37.3296 10.844 39.3731 10.844C41.9465 10.844 42.9682 11.9056 42.9682 13.4221V14.1046C41.9086 13.7634 40.7355 13.6121 39.3353 13.5738C34.9076 13.5359 31.7666 15.4316 31.7666 19.0717C31.7666 22.8632 34.6427 24.7589 39.6002 24.7589C42.7412 24.7589 45.7686 24.114 48.342 23.0527ZM42.9294 20.5497C42.059 20.8158 41.1886 20.9675 40.3182 20.9675C38.2368 20.9675 37.1772 20.0947 37.1772 18.8056C37.1772 17.5165 38.2368 16.9478 39.9398 16.9478C41.0751 16.9478 42.059 17.0995 42.9294 17.3656V20.5497ZM55.0019 32.0003C62.8355 26.389 67.0361 18.2374 68.5498 7.16642C67.5659 6.90102 66.3167 6.74936 65.0304 6.71145C64.3492 6.71145 63.5545 6.74936 62.8733 6.82519C62.3813 10.882 61.5488 15.1284 60.035 18.6545C59.9215 18.9206 59.808 19.2618 59.7323 19.641C59.6566 19.3748 59.5431 19.0723 59.3539 18.6545C57.8401 15.1663 56.6291 10.8445 55.9858 6.82519C55.3803 6.74936 54.5856 6.71145 53.9423 6.71145C52.4285 6.71145 50.7256 6.93893 49.9687 7.12851C51.3311 13.3844 52.9205 18.1244 56.4778 23.622C55.3803 25.1386 53.6774 26.6923 51.7473 28.2468C52.2393 29.8013 53.3368 31.4316 55.0019 32.0003ZM103.404 6.78717C103.366 8.56914 102.875 10.2753 101.853 11.4882C101.21 11.2986 100.528 11.2231 99.7711 11.2231C98.6358 11.2231 97.6897 11.4506 97.1221 11.716V24.1519C96.2517 24.3036 95.3056 24.3802 94.3977 24.3802C93.4895 24.3802 92.6187 24.304 91.7105 24.1519V8.91037C92.9211 7.81124 95.6083 6.25637 99.3927 6.25637C101.058 6.25637 102.383 6.44594 103.404 6.78717ZM120.698 13.9529V23.0527C118.125 24.114 115.097 24.7589 111.956 24.7589C106.998 24.7589 104.123 22.8632 104.123 19.0717C104.123 15.4316 107.264 13.5359 111.692 13.5738C113.092 13.6121 114.265 13.7634 115.325 14.1046V13.4221C115.325 11.9056 114.304 10.844 111.73 10.844C109.687 10.844 107.946 11.6402 107.038 12.3605C105.864 11.716 104.957 10.5027 104.692 8.87242C105.676 8.00039 108.401 6.33216 112.222 6.33216C117.216 6.33216 120.698 8.53119 120.698 13.9529ZM112.638 20.9675C113.509 20.9675 114.379 20.8158 115.249 20.5497V17.3656C114.378 17.0995 113.395 16.9478 112.259 16.9478C110.556 16.9478 109.497 17.5165 109.497 18.8056C109.497 20.0947 110.556 20.9675 112.638 20.9675ZM79.3731 6.21848C73.848 6.21848 69.837 9.89616 69.837 15.5075C69.837 21.2325 73.7727 24.7582 79.2978 24.7582C84.823 24.7582 88.834 21.0809 88.834 15.5075C88.834 9.85825 84.8604 6.21848 79.3731 6.21848ZM84.1028 19.2989H83.8757H74.9451C73.5827 19.1852 72.4853 18.0098 72.4853 16.6066C72.4853 15.3179 73.3935 14.2176 74.642 13.9909C74.5667 13.6876 74.4913 13.3464 74.4913 13.0048C74.4913 11.0711 76.0429 9.51702 77.9725 9.51702C79.6755 9.51702 81.0753 10.7299 81.3784 12.3223C81.5677 12.2844 81.7569 12.2465 81.9461 12.2465C83.3459 12.2465 84.4438 13.3839 84.4438 14.7492C84.4438 14.8629 84.4438 14.9767 84.4059 15.09C85.4273 15.2417 86.2228 16.1137 86.2228 17.1753C86.1842 18.3511 85.2381 19.2989 84.1028 19.2989Z" fill="#0172EA"/>
</svg>